<svg width="5572" height="1155" xmlns="http://www.w3.org/2000/svg" xmlns:xlink="http://www.w3.org/1999/xlink" xml:space="preserve" overflow="hidden"><defs><clipPath id="clip0"><rect x="1" y="1283" width="5572" height="1155"/></clipPath></defs><g clip-path="url(#clip0)" transform="translate(-1 -1283)"><path d="M1977.74 1472.23C1988.94 1471.92 2000.22 1471.72 2011.38 1472.99 2018.01 1473.92 2025.13 1475.16 2030.28 1479.82 2033.39 1482.54 2034.03 1486.92 2033.98 1490.84 2033.97 1727.16 2033.96 1963.47 2033.98 2199.79 2033.94 2204.63 2034.58 2210.44 2030.58 2214.02 2024.55 2219.47 2016.1 2220.39 2008.39 2221.28 1996.39 2222.22 1984.33 2222.24 1972.33 2221.35 1964.48 2220.48 1956.05 2219.59 1949.58 2214.62 1945.42 2210.91 1946.06 2204.76 1946.01 2199.72 1946.03 1963.42 1946.02 1727.12 1946.01 1490.82 1945.88 1486.01 1947.07 1480.46 1951.63 1477.95 1959.51 1473.45 1968.87 1472.85 1977.74 1472.23Z" fill="#FFFFFF" fill-rule="evenodd"/><path d="M4057.59 1508.77C4068.65 1507.71 4079.88 1507.66 4090.93 1509.15 4099.73 1510.47 4109.01 1512.85 4115.64 1519.18 4122.44 1525.86 4124.75 1535.59 4126.06 1544.73 4127.36 1555.6 4127.33 1566.66 4125.9 1577.53 4124.6 1585.86 4122.33 1594.47 4116.79 1601.06 4112.46 1606.27 4105.99 1609.03 4099.66 1610.91 4087.55 1614.02 4074.93 1614.38 4062.52 1613.72 4052.17 1612.93 4041.3 1611.45 4032.52 1605.48 4024.47 1599.82 4020.95 1589.93 4019.4 1580.57 4017.66 1569.62 4017.69 1558.44 4018.69 1547.42 4020 1537.3 4022.32 1526.42 4029.89 1519.04 4037.43 1512.21 4047.81 1510.1 4057.59 1508.77Z" fill="#FFFFFF" fill-rule="evenodd"/><path d="M2342.86 1700.25C2368.86 1698.08 2395.11 1698.73 2420.97 1702.23 2440.98 1705 2460.84 1710.01 2479.19 1718.58 2494.95 1725.77 2509.53 1735.81 2521.28 1748.58 2531.06 1759.1 2538.7 1771.45 2544.52 1784.53 2552.46 1802.96 2556.61 1822.78 2558.98 1842.63 2561.71 1866.22 2560.83 1890.01 2560.97 1913.7 2560.96 2010.76 2560.98 2107.82 2560.96 2204.89 2561.06 2208.7 2559.67 2212.68 2556.4 2214.9 2548.77 2219.98 2539.24 2220.53 2530.36 2220.95 2520.1 2221.23 2509.73 2221.18 2499.62 2219.26 2495.08 2218.14 2489.99 2216.87 2487.11 2212.91 2484.34 2209.14 2484.88 2204.22 2484.79 2199.84 2484.75 2185.61 2484.53 2171.37 2484.73 2157.14 2462.62 2180.38 2436.42 2200.11 2406.79 2212.72 2390.06 2220.11 2372.16 2224.71 2354.01 2226.84 2333.6 2228.92 2312.92 2228.16 2292.68 2224.96 2273.74 2221.89 2255.04 2216.46 2237.97 2207.59 2220.76 2198.77 2205.22 2186.4 2193.4 2171.05 2179.84 2153.35 2170.69 2132.28 2167.27 2110.24 2164.43 2091.89 2164.18 2073.1 2166.95 2054.73 2170.06 2034.4 2177.65 2014.66 2189.8 1997.97 2210.69 1968.37 2243.78 1949.88 2277.67 1938.88 2321.64 1924.95 2368.17 1921.21 2414.09 1921.5 2433.74 1921.46 2453.38 1921.49 2473.03 1921.48 2472.71 1895.04 2474.69 1868.23 2468.91 1842.21 2465.34 1825.01 2457.77 1808.06 2444.68 1795.99 2429.59 1781.37 2408.63 1774.69 2388.16 1772.17 2364.26 1769.46 2339.89 1770.41 2316.32 1775.27 2284.81 1782.65 2254.95 1795.87 2226.96 1811.95 2221.42 1815.08 2215.82 1818.41 2209.57 1819.94 2203.86 1821.37 2197.48 1818.81 2194.41 1813.79 2189.11 1805.83 2188.98 1795.82 2188.56 1786.61 2188.64 1777.98 2188.59 1769 2191.91 1760.89 2195.61 1752.72 2202.86 1746.92 2210.25 1742.24 2226.84 1731.72 2244.99 1723.92 2263.5 1717.48 2289.22 1708.9 2315.86 1702.94 2342.86 1700.25M2330.8 1992.27C2310.95 1997.32 2291.07 2005.7 2276.64 2020.67 2265.2 2032 2258.5 2047.54 2256.53 2063.39 2254.86 2076.51 2255.21 2090.06 2258.92 2102.84 2263.4 2120.08 2274.86 2135.21 2289.8 2144.84 2304.94 2154.56 2323.12 2158.36 2340.91 2158.87 2359.71 2159.69 2378.77 2156.42 2396.01 2148.81 2414.05 2141.05 2429.83 2128.99 2444.47 2116.1 2454.34 2106.97 2464.09 2097.62 2472.79 2087.37 2473.44 2082.22 2472.84 2076.97 2473.05 2071.79 2473.03 2042.94 2473.07 2014.1 2473.03 1985.26 2450.04 1985.22 2427.07 1985.18 2404.09 1985.2 2379.52 1985.1 2354.72 1986.23 2330.8 1992.27Z" fill="#FFFFFF" fill-rule="evenodd"/><path d="M2861.24 1699.22C2879.25 1698.46 2897.34 1699.66 2915.06 1702.9 2936.07 1706.74 2957.02 1712.39 2975.92 1722.59 2982.7 1726.23 2989.51 1730.19 2994.75 1735.93 2998.9 1740.66 2999.3 1747.26 3000.3 1753.19 3001.65 1761.91 3001.52 1770.79 3001.13 1779.58 3000.53 1785.97 3000.02 1792.67 2996.84 1798.39 2995.08 1801.61 2991.78 1804.14 2988.02 1804.24 2983.05 1804.36 2978.75 1801.51 2974.65 1799.11 2962.52 1791.58 2949.63 1785.34 2936.32 1780.2 2920.99 1774.5 2905.18 1769.54 2888.77 1768.29 2867.71 1766.53 2845.93 1767.3 2825.86 1774.52 2813.46 1778.83 2801.98 1786.41 2794.15 1797.06 2784.81 1809.41 2780.59 1825.23 2781.6 1840.6 2782.09 1850.83 2784.6 1861.3 2790.63 1869.74 2799.11 1882.22 2811.14 1891.87 2824.11 1899.38 2844.85 1911.76 2867.89 1919.38 2890.17 1928.45 2910.91 1936.62 2931.47 1945.31 2951.27 1955.57 2972.31 1966.74 2991.77 1981.88 3005.18 2001.8 3011.79 2011.52 3017.18 2022.13 3020.63 2033.4 3027.16 2056.59 3027.35 2081.29 3023.26 2104.94 3017.02 2140.34 2996.37 2173.25 2966.26 2193.13 2949.03 2205.38 2929.21 2213.64 2908.88 2219.14 2881.87 2226.48 2853.7 2228.54 2825.8 2227.88 2798.72 2226.8 2771.71 2222.23 2745.94 2213.79 2731.76 2209.03 2717.84 2203.28 2705.04 2195.5 2699.67 2192.07 2694.15 2188.26 2691.1 2182.47 2685.68 2172.56 2685.26 2160.93 2685 2149.89 2684.97 2139.34 2685.26 2128.45 2689.23 2118.51 2690.94 2113.97 2695.75 2111.1 2700.57 2111.54 2706.62 2112.16 2711.88 2115.57 2717.09 2118.48 2739.43 2132.39 2763.41 2143.97 2788.81 2151.11 2804.69 2155.71 2821.31 2157.19 2837.78 2157.41 2852.38 2157.62 2867.04 2155.97 2881.14 2152.12 2894.74 2148.21 2907.99 2142.03 2918.43 2132.3 2929.51 2122.13 2936.05 2107.68 2937.91 2092.87 2939.69 2079.07 2938.8 2064.29 2931.85 2051.93 2924.83 2039.7 2913.9 2030.18 2902.17 2022.59 2883.42 2010.22 2862.19 2002.51 2841.36 1994.47 2815.04 1984.2 2788.76 1973.5 2764.32 1959.25 2751.39 1951.18 2739.19 1941.75 2729.06 1930.32 2716.89 1916.97 2707.78 1900.87 2702.4 1883.65 2692.83 1849.19 2695.2 1810.87 2711.84 1778.9 2725.86 1751.26 2750.76 1730.29 2778.74 1717.62 2804.46 1705.47 2832.93 1700.08 2861.24 1699.22Z" fill="#FFFFFF" fill-rule="evenodd"/><path d="M3320.81 1715.51C3340.46 1705.73 3362.11 1699.91 3384.07 1699.09 3409.29 1698.48 3434.92 1701.68 3458.41 1711.25 3474.63 1717.79 3489.61 1727.45 3502.19 1739.62 3517.85 1754.88 3529.14 1774.08 3537.54 1794.14 3564.54 1765.38 3593.48 1737.48 3628.48 1718.63 3648.48 1707.65 3670.77 1700.55 3693.61 1699.27 3714.13 1698.25 3734.9 1700.06 3754.79 1705.36 3787.58 1714.22 3816.71 1735.73 3835.32 1764.13 3846.04 1780.54 3853.68 1798.89 3858.36 1817.91 3863.69 1839.89 3866.73 1862.41 3867.54 1885.01 3868.33 1907.7 3867.83 1930.42 3867.98 1953.12 3867.98 2034.67 3867.97 2116.23 3867.98 2197.78 3867.91 2201.65 3868.27 2205.61 3867.32 2209.42 3865.74 2214.54 3860.54 2217.32 3855.77 2218.86 3845.35 2221.88 3834.41 2221.92 3823.66 2222 3812.9 2221.91 3801.98 2221.83 3791.58 2218.83 3787.62 2217.66 3783.59 2215.83 3781.1 2212.43 3779.3 2209.92 3779.09 2206.73 3779.09 2203.78 3779.1 2117.89 3779.1 2032 3779.1 1946.12 3778.91 1922.09 3779.98 1897.92 3776.6 1874.05 3773.8 1851.78 3767.73 1829.34 3754.87 1810.67 3742.88 1793.1 3723.59 1780.7 3702.61 1777.27 3690.29 1775.21 3677.54 1774.88 3665.33 1777.76 3649.2 1781.57 3634.41 1789.76 3621.48 1799.99 3596.19 1819.57 3574.88 1843.71 3554.69 1868.38 3554.77 1978.49 3554.68 2088.62 3554.73 2198.73 3554.65 2202.58 3555.06 2206.59 3553.73 2210.3 3552.09 2214.47 3547.92 2216.9 3543.88 2218.28 3533.35 2221.74 3522.13 2221.89 3511.16 2221.99 3500.09 2221.94 3488.83 2221.84 3478.11 2218.77 3474.22 2217.57 3470.04 2215.83 3467.96 2212.1 3465.85 2208.36 3466.35 2203.93 3466.28 2199.83 3466.31 2113.59 3466.29 2027.36 3466.3 1941.13 3466.18 1918.68 3467.04 1896.1 3463.58 1873.83 3460.56 1851.84 3453.9 1829.99 3441.55 1811.38 3429.8 1793.78 3410.91 1780.93 3389.98 1777.39 3377.16 1775.16 3363.85 1774.83 3351.15 1777.94 3335.07 1781.93 3320.37 1790.21 3307.4 1800.36 3283.04 1819.23 3262.48 1842.44 3243.02 1866.2 3242.17 1867.26 3241.09 1868.35 3241.37 1869.85 3241.35 1979.82 3241.33 2089.78 3241.35 2199.75 3241.24 2203.55 3241.76 2207.61 3240.07 2211.16 3237.91 2215.01 3233.8 2217.37 3229.71 2218.69 3219.05 2221.95 3207.76 2221.89 3196.72 2222 3185.39 2221.89 3173.79 2221.82 3162.95 2218.16 3159.46 2216.82 3155.62 2214.89 3154.2 2211.19 3152.5 2206.93 3153.14 2202.26 3153.03 2197.8 3153.03 2041.42 3153.05 1885.03 3153.03 1728.63 3153.08 1724.1 3152.62 1719.13 3155.14 1715.12 3157.95 1711.3 3162.68 1709.62 3167.08 1708.38 3178.78 1705.96 3190.82 1706.46 3202.7 1706.58 3211.41 1707.22 3221.3 1706.81 3228.3 1713 3231.51 1715.52 3232.88 1719.64 3232.76 1723.64 3232.82 1744.63 3232.77 1765.63 3232.78 1786.62 3258.36 1758.82 3286.55 1732.25 3320.81 1715.51Z" fill="#FFFFFF" fill-rule="evenodd"/><path d="M5025.68 1715.58C5045.89 1705.51 5068.21 1699.62 5090.81 1699.05 5112.04 1698.81 5133.51 1700.96 5153.72 1707.77 5173.38 1714.06 5191.67 1724.77 5206.58 1739.08 5222.58 1754.41 5234.02 1773.89 5242.57 1794.18 5267.63 1767.35 5294.4 1741.43 5326.23 1722.73 5346.06 1710.87 5368.13 1702.41 5391.18 1699.91 5411.11 1697.95 5431.38 1699.19 5450.99 1703.26 5487.29 1710.54 5520.07 1733.18 5540.31 1764.12 5550.16 1779.23 5557.47 1795.97 5562.17 1813.38 5567.76 1834.48 5570.95 1856.19 5572.22 1877.97 5573.43 1901.02 5572.84 1924.11 5572.98 1947.2 5572.99 2032.7 5572.97 2118.2 5572.99 2203.7 5573.08 2207.75 5572.04 2212.17 5568.65 2214.75 5562.19 2219.86 5553.58 2220.56 5545.71 2221.45 5532.85 2222.18 5519.89 2222.34 5507.08 2220.95 5500.22 2219.82 5492.66 2218.85 5487.39 2213.9 5484.53 2211.35 5484.01 2207.35 5484.08 2203.77 5484.1 2117.23 5484.09 2030.7 5484.09 1944.16 5483.93 1920.78 5484.9 1897.25 5481.6 1874.02 5478.78 1851.71 5472.69 1829.21 5459.76 1810.54 5449.07 1794.95 5432.67 1783.44 5414.38 1778.72 5395.15 1774 5374.27 1774.43 5355.95 1782.45 5340.34 1788.65 5326.9 1799.09 5314.28 1809.97 5294.29 1827.6 5276.63 1847.66 5259.75 1868.23 5259.7 1978.74 5259.69 2089.26 5259.73 2199.79 5259.69 2204.41 5260.15 2209.78 5256.75 2213.45 5252.69 2217.82 5246.57 2219.11 5241 2220.25 5229.47 2222.31 5217.68 2222.02 5206.02 2221.83 5197.93 2221.56 5189.77 2220.85 5182.04 2218.41 5178.43 2217.19 5174.61 2215.38 5172.84 2211.84 5170.83 2208.13 5171.33 2203.77 5171.27 2199.74 5171.29 2112.87 5171.28 2026.02 5171.28 1939.16 5171.18 1918.08 5171.93 1896.87 5168.86 1875.95 5165.97 1853.39 5159.37 1830.93 5146.81 1811.8 5136.26 1795.98 5120.12 1783.73 5101.64 1778.9 5082.2 1773.94 5060.99 1774.38 5042.45 1782.49 5023.62 1790.16 5007.7 1803.3 4992.94 1817.01 4975.98 1832.71 4960.98 1850.36 4946.36 1868.23 4946.3 1980.41 4946.34 2092.59 4946.3 2204.78 4946.3 2208.13 4945.49 2211.74 4942.86 2214.03 4937.15 2219.35 4928.97 2220.21 4921.59 2221.22 4908.57 2222.25 4895.43 2222.29 4882.43 2221.18 4875.47 2220.2 4868 2219.36 4862.19 2215.07 4858.6 2212.55 4857.98 2207.79 4858 2203.75 4858.02 2044.04 4858.01 1884.33 4858 1724.62 4858 1720.34 4858.65 1715.34 4862.46 1712.69 4869.67 1707.48 4878.94 1707.16 4887.5 1706.63 4898.8 1706.4 4910.18 1706.18 4921.41 1707.78 4926.86 1708.59 4932.31 1711.12 4935.66 1715.65 4937.75 1718.51 4937.66 1722.24 4937.78 1725.63 4937.84 1745.98 4937.85 1766.33 4937.8 1786.68 4963.26 1758.8 4991.51 1732.35 5025.68 1715.58Z" fill="#FFFFFF" fill-rule="evenodd"/><path d="M4052.22 1706.93C4063.99 1705.69 4075.88 1705.89 4087.7 1706.38 4095.54 1707.09 4103.87 1707.69 4110.78 1711.91 4114.69 1714.21 4117.12 1718.65 4116.96 1723.22 4117 1881.06 4116.96 2038.9 4116.98 2196.75 4116.86 2201.04 4117.36 2205.43 4116.34 2209.66 4113.99 2215.68 4107.44 2218.46 4101.59 2219.74 4089.15 2222.34 4076.35 2222.08 4063.73 2221.88 4054.07 2221.26 4043.84 2221.09 4035.12 2216.37 4030.72 2214.37 4028.89 2209.4 4029.05 2204.82 4028.99 2044.94 4029.07 1885.05 4029.01 1725.16 4028.94 1720.97 4029.45 1716.13 4032.88 1713.27 4038.36 1708.95 4045.51 1707.89 4052.22 1706.93Z" fill="#FFFFFF" fill-rule="evenodd"/><path d="M4294.07 1707.87C4305.24 1705.76 4316.73 1706.04 4328.07 1706.02 4337.44 1706.44 4347.12 1706.12 4356.08 1709.36 4359.79 1710.9 4363.79 1712.95 4365.58 1716.79 4367.49 1720.64 4366.89 1725.07 4367.01 1729.23 4366.99 1814.68 4367.01 1900.14 4367.01 1985.59 4366.89 2010 4366.92 2034.56 4370.71 2058.75 4373.77 2076.9 4379.54 2094.82 4389.5 2110.42 4400.19 2127.6 4416.94 2141.02 4436.28 2147.18 4458.49 2154.03 4483.13 2153.76 4504.8 2145.06 4520.56 2139.05 4534.66 2129.47 4547.58 2118.76 4562.95 2106.2 4576.93 2092 4590.01 2077.08 4594.92 2071.05 4600.59 2065.47 4604.81 2058.95 4605.02 1949.68 4604.87 1840.4 4604.92 1731.12 4605.07 1726.55 4604.32 1721.8 4605.9 1717.42 4607.75 1712.22 4613.43 1710.06 4618.26 1708.5 4629.54 1705.65 4641.31 1706.15 4652.85 1706 4662.19 1706.32 4671.73 1706.05 4680.8 1708.65 4685.88 1710.35 4691.11 1713.45 4693.22 1718.64 4694.35 1722.71 4693.89 1726.99 4693.99 1731.17 4693.98 1888.4 4693.99 2045.64 4693.98 2202.88 4693.92 2206.62 4693.39 2210.78 4690.53 2213.5 4686.79 2217.01 4681.66 2218.36 4676.79 2219.39 4666.56 2221.27 4656.13 2221.23 4645.8 2221.01 4637.9 2220.62 4629.82 2220.2 4622.39 2217.32 4619.54 2216.06 4616.49 2214.45 4615.07 2211.56 4613.43 2208.26 4613.48 2204.47 4613.46 2200.89 4613.39 2180.91 4613.3 2160.93 4613.43 2140.96 4601.17 2153.9 4588.72 2166.73 4575 2178.14 4557.96 2192.21 4539.39 2204.69 4518.99 2213.36 4500.46 2221.46 4480.59 2226.68 4460.36 2227.71 4438.53 2228.74 4416.45 2227.13 4395.3 2221.48 4362.21 2212.83 4332.15 2192.24 4312.93 2163.86 4300.63 2146.01 4292.18 2125.68 4287.03 2104.68 4276.62 2061.77 4278.08 2017.33 4278.06 1973.52 4278.05 1891.73 4278.07 1809.95 4278.05 1728.17 4278.12 1723.64 4277.52 1718.51 4280.47 1714.66 4283.85 1710.71 4289.13 1708.99 4294.07 1707.87Z" fill="#FFFFFF" fill-rule="evenodd"/><path d="M1367 1538.85C1375.92 1529.23 1389.32 1524.99 1402.2 1525.04 1441.98 1524.97 1481.77 1525.03 1521.55 1525.01 1547.31 1525.17 1573.09 1524.52 1598.82 1525.99 1622.72 1527.03 1646.45 1530.77 1669.83 1535.75 1691.6 1540.28 1712.37 1548.75 1731.96 1559.14 1762.95 1575.73 1789.72 1600.95 1806.19 1632.18 1818.85 1655.35 1825.87 1681.3 1828.61 1707.48 1830.78 1729.08 1830.28 1750.89 1828.01 1772.45 1823.39 1816.32 1807.87 1859.85 1779.25 1893.87 1755.64 1922.37 1723.67 1943.14 1689.27 1956.28 1663.46 1966.16 1636.26 1972.16 1608.81 1975.1 1571.4 1979.4 1533.69 1977.76 1496.12 1978.11 1496.03 2051.97 1496.03 2125.82 1495.99 2199.67 1496.06 2206.99 1490.13 2212.75 1483.63 2215.09 1474.09 2218.62 1463.9 2220.01 1453.81 2220.96 1436.96 2222.2 1420.01 2222.32 1403.13 2221.37 1393.34 2220.87 1383.55 2219.68 1374.01 2217.34 1368.57 2215.93 1362.83 2214.16 1358.94 2209.85 1356.11 2206.89 1354.96 2202.71 1355 2198.7 1355 1991.14 1354.99 1783.57 1355.01 1576 1354.93 1562.87 1357.6 1548.66 1367 1538.85Z" fill="#FFFFFF" fill-rule="evenodd"/><path d="M1.00003 1860.5C1.00003 1541.56 259.556 1283 578.5 1283 897.444 1283 1156 1541.56 1156 1860.5 1156 2179.44 897.444 2438 578.5 2438 259.556 2438 1.00003 2179.44 1.00003 1860.5Z" fill="#FFFFFF" fill-rule="evenodd"/><path d="M351.995 1526.83C360.919 1517.22 374.316 1512.99 387.201 1513.04 426.98 1512.97 466.768 1513.03 506.546 1513.01 532.307 1513.17 558.087 1512.52 583.817 1513.99 607.722 1515.03 631.447 1518.76 654.831 1523.74 676.6 1528.25 697.367 1536.72 716.96 1547.09 747.955 1563.66 774.718 1588.84 791.193 1620.02 803.847 1643.16 810.866 1669.08 813.614 1695.22 815.78 1716.79 815.278 1738.57 813.012 1760.1 808.39 1803.9 792.867 1847.37 764.249 1881.35 740.645 1909.8 708.668 1930.54 674.274 1943.66 648.463 1953.53 621.259 1959.52 593.814 1962.45 556.402 1966.75 518.69 1965.11 481.117 1965.46 481.027 2039.21 481.027 2112.96 480.987 2186.7 481.057 2194.01 475.131 2199.76 468.633 2202.1 459.087 2205.63 448.899 2207.01 438.812 2207.96 421.956 2209.2 405.01 2209.32 388.134 2208.37 378.337 2207.87 368.55 2206.68 359.014 2204.35 353.569 2202.93 347.834 2201.17 343.943 2196.87 341.105 2193.91 339.963 2189.74 340.002 2185.73 340.002 1978.47 339.992 1771.2 340.013 1563.93 339.932 1550.81 342.6 1536.63 351.995 1526.83Z" fill-rule="evenodd"/><path d="M422 1808 475.098 1795.63 486.5 1738 497.902 1795.63 551 1808 497.902 1820.37 486.5 1878 475.098 1820.37Z" fill="#FFFFFF" fill-rule="evenodd"/><path d="M447 1657.5 489.808 1648.4 499 1606 508.192 1648.4 551 1657.5 508.192 1666.6 499 1709 489.808 1666.6Z" fill="#FFFFFF" fill-rule="evenodd"/><path d="M486 1727.5 587.668 1700.9 609.5 1577 631.332 1700.9 733 1727.5 631.332 1754.1 609.5 1878 587.668 1754.1Z" fill="#FFFFFF" fill-rule="evenodd"/></g></svg>