<svg width="5573" height="1186" xmlns="http://www.w3.org/2000/svg" xmlns:xlink="http://www.w3.org/1999/xlink" xml:space="preserve" overflow="hidden"><defs><clipPath id="clip0"><rect x="0" y="0" width="5573" height="1186"/></clipPath></defs><g clip-path="url(#clip0)"><path d="M0 577.5C-1.47047e-13 258.556 258.556 0 577.5 0 896.444-1.47047e-13 1155 258.556 1155 577.5 1155 896.444 896.444 1155 577.5 1155 258.556 1155-2.2057e-13 896.444 0 577.5Z" fill-rule="evenodd"/><path d="M190 419.5C190 282.745 395.926 130.613 437.111 171.883 478.296 213.152 478.296 625.848 437.111 667.117 395.926 708.387 190 556.255 190 419.5Z" fill="#FFFFFF" fill-rule="evenodd"/><path d="M717.889 667.117C676.704 625.848 676.704 213.152 717.889 171.883 759.074 130.613 965 282.745 965 419.5 965 556.255 759.074 708.387 717.889 667.117Z" fill="#FFFFFF" fill-rule="evenodd"/><path d="M530.5 165.5 530.5 990.5" stroke="#FFFFFF" stroke-width="68.75" stroke-miterlimit="8" fill="none" fill-rule="evenodd"/><path d="M624.5 165.5 624.5 990.5" stroke="#FFFFFF" stroke-width="68.75" stroke-miterlimit="8" fill="none" fill-rule="evenodd"/><path d="M525.5 970.5 624.66 1150.73" stroke="#FFFFFF" stroke-width="68.75" stroke-miterlimit="8" stroke-opacity="0.501961" fill="none" fill-rule="evenodd"/><path d="M621.5 975.5 726.021 1145.58" stroke="#FFFFFF" stroke-width="68.75" stroke-miterlimit="8" stroke-opacity="0.501961" fill="none" fill-rule="evenodd"/><path d="M1977.74 192.233C1988.94 191.922 2000.22 191.722 2011.38 192.994 2018.01 193.915 2025.13 195.157 2030.28 199.813 2033.39 202.527 2034.03 206.903 2033.98 210.818 2033.97 446.818 2033.96 682.816 2033.98 918.815 2033.94 923.652 2034.58 929.46 2030.58 933.035 2024.55 938.473 2016.1 939.394 2008.39 940.285 1996.39 941.216 1984.33 941.236 1972.33 940.355 1964.48 939.484 1956.05 938.593 1949.58 933.626 1945.42 929.921 1946.06 923.782 1946.01 918.745 1946.03 682.766 1946.02 446.777 1946.01 210.798 1945.88 205.992 1947.07 200.444 1951.63 197.94 1959.51 193.444 1968.87 192.854 1977.74 192.233Z" fill-rule="evenodd"/><path d="M4057.59 227.772C4068.65 226.709 4079.88 226.66 4090.93 228.152 4099.73 229.475 4109.01 231.849 4115.64 238.18 4122.44 244.863 4124.75 254.59 4126.06 263.727 4127.36 274.596 4127.33 285.657 4125.9 296.526 4124.6 304.861 4122.33 313.467 4116.79 320.059 4112.46 325.268 4105.99 328.034 4099.66 329.907 4087.55 333.022 4074.93 333.383 4062.52 332.722 4052.17 331.931 4041.3 330.448 4032.52 324.477 4024.47 318.817 4020.95 308.929 4019.4 299.572 4017.66 288.622 4017.69 277.442 4018.69 266.422 4020 256.303 4022.32 245.424 4029.89 238.04 4037.43 231.208 4047.81 229.104 4057.59 227.772Z" fill-rule="evenodd"/><path d="M2342.86 419.254C2368.86 417.078 2395.11 417.73 2420.97 421.239 2440.98 424.016 2460.84 429.028 2479.19 437.62 2494.95 444.818 2509.53 454.883 2521.28 467.675 2531.06 478.212 2538.7 490.582 2544.52 503.695 2552.46 522.161 2556.61 542.011 2558.98 561.901 2561.71 585.54 2560.83 609.37 2560.97 633.109 2560.96 730.352 2560.98 827.595 2560.96 924.849 2561.06 928.668 2559.67 932.648 2556.4 934.874 2548.77 939.966 2539.24 940.518 2530.36 940.939 2520.1 941.22 2509.73 941.17 2499.62 939.245 2495.08 938.122 2489.99 936.849 2487.11 932.879 2484.34 929.109 2484.88 924.177 2484.79 919.786 2484.75 905.531 2484.53 891.265 2484.73 877.009 2462.62 900.287 2436.42 920.057 2406.79 932.688 2390.06 940.097 2372.16 944.708 2354.01 946.834 2333.6 948.919 2312.92 948.157 2292.68 944.959 2273.74 941.881 2255.04 936.438 2237.97 927.556 2220.76 918.714 2205.22 906.322 2193.4 890.944 2179.84 873.21 2170.69 852.097 2167.27 830.022 2164.43 811.636 2164.18 792.808 2166.95 774.402 2170.06 754.031 2177.65 734.252 2189.8 717.54 2210.69 687.876 2243.78 669.349 2277.67 658.332 2321.64 644.377 2368.17 640.628 2414.09 640.919 2433.74 640.878 2453.38 640.908 2473.03 640.899 2472.71 614.412 2474.69 587.555 2468.91 561.48 2465.34 544.247 2457.77 527.264 2444.68 515.174 2429.59 500.527 2408.63 493.83 2388.16 491.304 2364.26 488.597 2339.89 489.54 2316.32 494.412 2284.81 501.811 2254.95 515.053 2226.96 531.164 2221.42 534.302 2215.82 537.64 2209.57 539.164 2203.86 540.598 2197.48 538.041 2194.41 533.008 2189.11 525.028 2188.98 515.003 2188.56 505.78 2188.64 497.129 2188.59 488.136 2191.91 480.006 2195.61 471.825 2202.86 466.011 2210.25 461.319 2226.84 450.783 2244.99 442.963 2263.5 436.517 2289.22 427.915 2315.86 421.951 2342.86 419.254M2330.8 711.826C2310.95 716.889 2291.07 725.28 2276.64 740.277 2265.2 751.625 2258.5 767.194 2256.53 783.074 2254.86 796.227 2255.21 809.801 2258.92 822.603 2263.4 839.876 2274.86 855.034 2289.8 864.678 2304.94 874.422 2323.12 878.232 2340.91 878.744 2359.71 879.565 2378.77 876.287 2396.01 868.658 2414.05 860.889 2429.83 848.798 2444.47 835.886 2454.34 826.743 2464.09 817.37 2472.79 807.104 2473.44 801.941 2472.84 796.688 2473.05 791.495 2473.03 762.593 2473.07 733.7 2473.03 704.798 2450.04 704.758 2427.07 704.718 2404.09 704.738 2379.52 704.638 2354.72 705.771 2330.8 711.826Z" fill-rule="evenodd"/><path d="M2861.24 418.221C2879.25 417.459 2897.34 418.662 2915.06 421.91 2936.07 425.75 2957.02 431.414 2975.92 441.63 2982.7 445.28 2989.51 449.25 2994.75 455.004 2998.9 459.736 2999.3 466.353 3000.3 472.288 3001.65 481.03 3001.52 489.923 3001.13 498.735 3000.53 505.131 3000.02 511.849 2996.84 517.573 2995.08 520.801 2991.78 523.338 2988.02 523.438 2983.05 523.558 2978.75 520.701 2974.65 518.295 2962.52 510.755 2949.63 504.5 2936.32 499.357 2920.99 493.642 2905.18 488.67 2888.77 487.416 2867.71 485.662 2845.93 486.434 2825.86 493.662 2813.46 497.983 2801.98 505.573 2794.15 516.25 2784.81 528.621 2780.59 544.471 2781.6 559.87 2782.09 570.116 2784.6 580.603 2790.63 589.064 2799.11 601.566 2811.14 611.23 2824.11 618.76 2844.85 631.161 2867.89 638.8 2890.17 647.883 2910.91 656.064 2931.47 664.777 2951.27 675.052 2972.31 686.251 2991.77 701.419 3005.18 721.37 3011.79 731.115 3017.18 741.741 3020.63 753.03 3027.16 776.269 3027.35 801.012 3023.26 824.712 3017.02 860.172 2996.37 893.145 2966.26 913.066 2949.03 925.337 2929.21 933.608 2908.88 939.122 2881.87 946.481 2853.7 948.546 2825.8 947.884 2798.72 946.802 2771.71 942.22 2745.94 933.758 2731.76 928.996 2717.84 923.232 2705.04 915.442 2699.67 912.003 2694.15 908.183 2691.1 902.389 2685.68 892.454 2685.26 880.804 2685 869.746 2684.97 859.169 2685.26 848.261 2689.23 838.307 2690.94 833.755 2695.75 830.878 2700.57 831.319 2706.62 831.94 2711.88 835.359 2717.09 838.276 2739.43 852.212 2763.41 863.811 2788.81 870.969 2804.69 875.571 2821.31 877.055 2837.78 877.275 2852.38 877.486 2867.04 875.832 2881.14 871.972 2894.74 868.062 2907.99 861.866 2918.43 852.122 2929.51 841.926 2936.05 827.449 2937.91 812.611 2939.69 798.786 2938.8 783.979 2931.85 771.597 2924.83 759.346 2913.9 749.802 2902.17 742.203 2883.42 729.811 2862.19 722.082 2841.36 714.031 2815.04 703.735 2788.76 693.018 2764.32 678.742 2751.39 670.661 2739.19 661.207 2729.06 649.758 2716.89 636.385 2707.78 620.253 2702.4 603 2692.83 568.472 2695.2 530.085 2711.84 498.054 2725.86 470.363 2750.76 449.35 2778.74 436.658 2804.46 424.487 2832.93 419.083 2861.24 418.221Z" fill-rule="evenodd"/><path d="M3320.81 434.513C3340.46 424.729 3362.11 418.905 3384.07 418.093 3409.29 417.482 3434.92 420.679 3458.41 430.252 3474.63 436.788 3489.61 446.451 3502.19 458.62 3517.85 473.877 3529.14 493.083 3537.54 513.142 3564.54 484.383 3593.48 456.475 3628.48 437.63 3648.48 426.654 3670.77 419.547 3693.61 418.274 3714.13 417.251 3734.9 419.055 3754.79 424.358 3787.58 433.219 3816.71 454.731 3835.32 483.129 3846.04 499.539 3853.68 517.893 3858.36 536.909 3863.69 558.891 3866.73 581.406 3867.54 604.01 3868.33 626.705 3867.83 649.419 3867.98 672.124 3867.98 753.67 3867.97 835.226 3867.98 916.782 3867.91 920.651 3868.27 924.611 3867.32 928.42 3865.74 933.542 3860.54 936.319 3855.77 937.863 3845.35 940.88 3834.41 940.92 3823.66 941 3812.9 940.91 3801.98 940.83 3791.58 937.832 3787.62 936.66 3783.59 934.825 3781.1 931.427 3779.3 928.921 3779.09 925.733 3779.09 922.776 3779.1 836.89 3779.1 751.004 3779.1 665.117 3778.91 641.089 3779.98 616.921 3776.6 593.054 3773.8 570.78 3767.73 548.336 3754.87 529.671 3742.88 512.099 3723.59 499.699 3702.61 496.271 3690.29 494.206 3677.54 493.875 3665.33 496.762 3649.2 500.572 3634.41 508.761 3621.48 518.986 3596.19 538.573 3574.88 562.711 3554.69 587.38 3554.77 697.495 3554.68 807.62 3554.73 917.734 3554.65 921.584 3555.06 925.593 3553.73 929.302 3552.09 933.472 3547.92 935.898 3543.88 937.281 3533.35 940.74 3522.13 940.89 3511.16 940.99 3500.09 940.94 3488.83 940.84 3478.11 937.772 3474.22 936.569 3470.04 934.825 3467.96 931.096 3465.85 927.357 3466.35 922.927 3466.28 918.827 3466.31 832.589 3466.29 746.362 3466.3 660.125 3466.18 637.681 3467.04 615.097 3463.58 592.833 3460.56 570.84 3453.9 548.988 3441.55 530.383 3429.8 512.781 3410.91 499.93 3389.98 496.391 3377.16 494.156 3363.85 493.825 3351.15 496.943 3335.07 500.932 3320.37 509.212 3307.4 519.357 3283.04 538.232 3262.48 561.438 3243.02 585.195 3242.17 586.257 3241.09 587.35 3241.37 588.853 3241.35 698.818 3241.33 808.782 3241.35 918.746 3241.24 922.546 3241.76 926.606 3240.07 930.164 3237.91 934.013 3233.8 936.369 3229.71 937.692 3219.05 940.95 3207.76 940.89 3196.72 941 3185.39 940.89 3173.79 940.82 3162.95 937.161 3159.46 935.818 3155.62 933.893 3154.2 930.194 3152.5 925.934 3153.14 921.263 3153.03 916.802 3153.03 760.416 3153.05 604.03 3153.03 447.634 3153.08 443.103 3152.62 438.131 3155.14 434.122 3157.95 430.303 3162.68 428.618 3167.08 427.375 3178.78 424.959 3190.82 425.461 3202.7 425.581 3211.41 426.222 3221.3 425.811 3228.3 431.996 3231.51 434.522 3232.88 438.642 3232.76 442.642 3232.82 463.632 3232.77 484.633 3232.78 505.623 3258.36 477.816 3286.55 451.253 3320.81 434.513Z" fill-rule="evenodd"/><path d="M5025.68 434.58C5045.89 424.507 5068.21 418.623 5090.81 418.052 5112.04 417.811 5133.51 419.956 5153.72 426.772 5173.38 433.056 5191.67 443.771 5206.58 458.085 5222.58 473.411 5234.02 492.886 5242.57 513.183 5267.63 486.351 5294.4 460.43 5326.23 441.727 5346.06 429.869 5368.13 421.41 5391.18 418.914 5411.11 416.949 5431.38 418.192 5450.99 422.262 5487.29 429.538 5520.07 452.181 5540.31 483.123 5550.16 498.228 5557.47 514.967 5562.17 532.377 5567.76 553.477 5570.95 575.187 5572.22 596.968 5573.43 620.021 5572.84 643.115 5572.98 666.199 5572.99 751.697 5572.97 837.196 5572.99 922.695 5573.08 926.754 5572.04 931.175 5568.65 933.75 5562.19 938.863 5553.58 939.564 5545.71 940.446 5532.85 941.178 5519.89 941.338 5507.08 939.945 5500.22 938.822 5492.66 937.85 5487.39 932.899 5484.53 930.353 5484.01 926.354 5484.08 922.765 5484.1 836.234 5484.09 749.703 5484.09 663.161 5483.93 639.777 5484.9 616.252 5481.6 593.019 5478.78 570.707 5472.69 548.214 5459.76 529.541 5449.07 513.955 5432.67 502.438 5414.38 497.717 5395.15 492.996 5374.27 493.427 5355.95 501.445 5340.34 507.65 5326.9 518.094 5314.28 528.97 5294.29 546.601 5276.63 566.657 5259.75 587.225 5259.7 697.742 5259.69 808.259 5259.73 918.786 5259.69 923.406 5260.15 928.779 5256.75 932.447 5252.69 936.818 5246.57 938.111 5241 939.253 5229.47 941.308 5217.68 941.018 5206.02 940.827 5197.93 940.557 5189.77 939.855 5182.04 937.409 5178.43 936.186 5174.61 934.382 5172.84 930.844 5170.83 927.125 5171.33 922.775 5171.27 918.736 5171.29 831.874 5171.28 745.022 5171.28 658.16 5171.18 637.081 5171.93 615.871 5168.86 594.953 5165.97 572.391 5159.37 549.928 5146.81 530.804 5136.26 514.977 5120.12 502.728 5101.64 497.898 5082.2 492.936 5060.99 493.377 5042.45 501.486 5023.62 509.164 5007.7 522.304 4992.94 536.006 4975.98 551.713 4960.98 569.364 4946.36 587.225 4946.3 699.406 4946.34 811.587 4946.3 923.777 4946.3 927.125 4945.49 930.743 4942.86 933.029 4937.15 938.351 4928.97 939.213 4921.59 940.216 4908.57 941.248 4895.43 941.288 4882.43 940.175 4875.47 939.203 4868 938.361 4862.19 934.071 4858.6 931.545 4857.98 926.794 4858 922.755 4858.02 763.044 4858.01 603.332 4858 443.621 4858 439.341 4858.65 434.339 4862.46 431.693 4869.67 426.481 4878.94 426.161 4887.5 425.63 4898.8 425.399 4910.18 425.178 4921.41 426.782 4926.86 427.594 4932.31 430.12 4935.66 434.65 4937.75 437.507 4937.66 441.236 4937.78 444.634 4937.84 464.981 4937.85 485.328 4937.8 505.676 4963.26 477.801 4991.51 451.349 5025.68 434.58Z" fill-rule="evenodd"/><path d="M4052.22 426.932C4063.99 425.69 4075.88 425.89 4087.7 426.381 4095.54 427.092 4103.87 427.683 4110.78 431.898 4114.69 434.191 4117.12 438.628 4116.96 443.184 4117 600.718 4116.96 758.253 4116.98 915.797 4116.86 920.083 4117.36 924.459 4116.34 928.685 4113.99 934.693 4107.44 937.467 4101.59 938.749 4089.15 941.342 4076.35 941.082 4063.73 940.882 4054.07 940.261 4043.84 940.091 4035.12 935.384 4030.72 933.381 4028.89 928.425 4029.05 923.848 4028.99 764.281 4029.07 604.704 4029.01 445.127 4028.94 440.941 4029.45 436.114 4032.88 433.26 4038.36 428.944 4045.51 427.883 4052.22 426.932Z" fill-rule="evenodd"/><path d="M4294.07 427.873C4305.24 425.76 4316.73 426.04 4328.07 426.02 4337.44 426.44 4347.12 426.12 4356.08 429.355 4359.79 430.897 4363.79 432.95 4365.58 436.787 4367.49 440.642 4366.89 445.069 4367.01 449.225 4366.99 534.676 4367.01 620.137 4367.01 705.588 4366.89 730.005 4366.92 754.563 4370.71 778.75 4373.77 796.898 4379.54 814.825 4389.5 830.419 4400.19 847.605 4416.94 861.015 4436.28 867.185 4458.49 874.026 4483.13 873.765 4504.8 865.062 4520.56 859.052 4534.66 849.468 4547.58 838.761 4562.95 826.202 4576.93 812 4590.01 797.078 4594.92 791.048 4600.59 785.47 4604.81 778.95 4605.02 669.683 4604.87 560.396 4604.92 451.118 4605.07 446.551 4604.32 441.804 4605.9 437.418 4607.75 432.22 4613.43 430.056 4618.26 428.504 4629.54 425.649 4641.31 426.15 4652.85 426 4662.19 426.321 4671.73 426.05 4680.8 428.654 4685.88 430.347 4691.11 433.451 4693.22 438.639 4694.35 442.705 4693.89 446.992 4693.99 451.168 4693.98 608.399 4693.99 765.64 4693.98 922.88 4693.92 926.616 4693.39 930.782 4690.53 933.496 4686.79 937.012 4681.66 938.364 4676.79 939.395 4666.56 941.268 4656.13 941.228 4645.8 941.008 4637.9 940.617 4629.82 940.196 4622.39 937.322 4619.54 936.06 4616.49 934.448 4615.07 931.563 4613.43 928.258 4613.48 924.473 4613.46 920.887 4613.39 900.907 4613.3 880.926 4613.43 860.955 4601.17 873.905 4588.72 886.735 4575 898.142 4557.96 912.214 4539.39 924.693 4518.99 933.356 4500.46 941.458 4480.59 946.677 4460.36 947.708 4438.53 948.74 4416.45 947.127 4395.3 941.479 4362.21 932.825 4332.15 912.244 4312.93 883.86 4300.63 866.013 4292.18 845.682 4287.03 824.68 4276.62 781.774 4278.08 737.326 4278.06 693.519 4278.05 611.734 4278.07 529.949 4278.05 448.174 4278.12 443.637 4277.52 438.509 4280.47 434.663 4283.85 430.707 4289.13 428.995 4294.07 427.873Z" fill-rule="evenodd"/><path d="M1367 258.833C1375.92 249.22 1389.32 244.995 1402.2 245.045 1441.98 244.975 1481.77 245.035 1521.55 245.015 1547.31 245.165 1573.09 244.525 1598.82 245.986 1622.72 247.028 1646.45 250.762 1669.83 255.739 1691.6 260.255 1712.37 268.716 1731.96 279.09 1762.95 295.661 1789.72 320.844 1806.19 352.025 1818.85 375.165 1825.87 401.079 1828.61 427.223 1830.78 448.791 1830.28 470.569 1828.01 492.097 1823.39 535.904 1807.87 579.371 1779.25 613.345 1755.64 641.802 1723.67 662.539 1689.27 675.656 1663.46 685.529 1636.26 691.517 1608.81 694.451 1571.4 698.746 1533.69 697.114 1496.12 697.465 1496.03 771.211 1496.03 844.957 1495.99 918.703 1496.06 926.012 1490.13 931.76 1483.63 934.103 1474.09 937.627 1463.9 939.009 1453.81 939.961 1436.96 941.202 1420.01 941.322 1403.13 940.371 1393.34 939.87 1383.55 938.679 1374.01 936.346 1368.57 934.934 1362.83 933.172 1358.94 928.866 1356.11 925.912 1354.96 921.737 1355 917.731 1355 710.471 1354.99 503.202 1355.01 295.932 1354.93 282.814 1357.6 268.626 1367 258.833Z" fill-rule="evenodd"/></g></svg>