<svg width="1155" height="1186" xmlns="http://www.w3.org/2000/svg" xmlns:xlink="http://www.w3.org/1999/xlink" xml:space="preserve" overflow="hidden"><defs><clipPath id="clip0"><rect x="300" y="599" width="1155" height="1186"/></clipPath></defs><g clip-path="url(#clip0)" transform="translate(-300 -599)"><path d="M300 1176.5C300 857.556 558.556 599 877.5 599 1196.44 599 1455 857.556 1455 1176.5 1455 1495.44 1196.44 1754 877.5 1754 558.556 1754 300 1495.44 300 1176.5Z" fill="#262626" fill-rule="evenodd"/><path d="M489 1018.5C489 881.745 695.667 729.614 737 770.883 778.333 812.153 778.333 1224.85 737 1266.12 695.667 1307.39 489 1155.26 489 1018.5Z" fill="#FFC000" fill-rule="evenodd"/><path d="M1017 1266.12C975.667 1224.85 975.667 812.153 1017 770.883 1058.33 729.614 1265 881.745 1265 1018.5 1265 1155.26 1058.33 1307.39 1017 1266.12Z" fill="#FFC000" fill-rule="evenodd"/><path d="M830.5 764.5 830.5 1589.5" stroke="#FFC000" stroke-width="68.75" stroke-miterlimit="8" fill="none" fill-rule="evenodd"/><path d="M924.5 764.5 924.5 1589.5" stroke="#FFC000" stroke-width="68.75" stroke-miterlimit="8" fill="none" fill-rule="evenodd"/><path d="M824.5 1569.5 923.66 1749.73" stroke="#FFC000" stroke-width="68.75" stroke-miterlimit="8" stroke-opacity="0.501961" fill="none" fill-rule="evenodd"/><path d="M921.5 1574.5 1026.02 1744.58" stroke="#FFC000" stroke-width="68.75" stroke-miterlimit="8" stroke-opacity="0.501961" fill="none" fill-rule="evenodd"/></g></svg>