<svg width="1155" height="1155" xmlns="http://www.w3.org/2000/svg" xmlns:xlink="http://www.w3.org/1999/xlink" xml:space="preserve" overflow="hidden"><defs><clipPath id="clip0"><rect x="0" y="1418" width="1155" height="1155"/></clipPath></defs><g clip-path="url(#clip0)" transform="matrix(1 0 0 1 0 -1418)"><path d="M0 1995.5C-1.47047e-13 1676.56 258.556 1418 577.5 1418 896.444 1418 1155 1676.56 1155 1995.5 1155 2314.44 896.444 2573 577.5 2573 258.556 2573-2.2057e-13 2314.44 0 1995.5Z" fill="#1954F4" fill-rule="evenodd"/><path d="M350.995 1656.85C359.919 1647.23 373.316 1642.99 386.201 1643.04 425.979 1642.97 465.768 1643.04 505.546 1643.02 531.307 1643.17 557.087 1642.52 582.817 1643.99 606.722 1645.03 630.447 1648.77 653.831 1653.75 675.6 1658.28 696.367 1666.75 715.96 1677.14 746.955 1693.73 773.718 1718.95 790.193 1750.18 802.847 1773.35 809.866 1799.3 812.614 1825.48 814.78 1847.08 814.278 1868.89 812.012 1890.45 807.39 1934.32 791.867 1977.85 763.249 2011.87 739.645 2040.37 707.668 2061.14 673.274 2074.28 647.463 2084.16 620.259 2090.16 592.814 2093.1 555.402 2097.4 517.69 2095.76 480.117 2096.11 480.027 2169.97 480.027 2243.82 479.987 2317.67 480.057 2324.99 474.131 2330.75 467.633 2333.09 458.087 2336.62 447.899 2338.01 437.812 2338.96 420.956 2340.2 404.01 2340.32 387.134 2339.37 377.337 2338.87 367.55 2337.68 358.014 2335.34 352.569 2333.93 346.834 2332.16 342.943 2327.85 340.105 2324.89 338.963 2320.71 339.002 2316.7 339.002 2109.14 338.992 1901.57 339.013 1694 338.932 1680.87 341.6 1666.66 350.995 1656.85Z" fill="#FFFFFF" fill-rule="evenodd"/><path d="M421 1938 474.098 1925.63 485.5 1868 496.902 1925.63 550 1938 496.902 1950.37 485.5 2008 474.098 1950.37Z" fill="#1954F4" fill-rule="evenodd"/><path d="M447 1787.5 489.396 1778.4 498.5 1736 507.604 1778.4 550 1787.5 507.604 1796.6 498.5 1839 489.396 1796.6Z" fill="#1954F4" fill-rule="evenodd"/><path d="M485 1857.5 586.668 1830.9 608.5 1707 630.332 1830.9 732 1857.5 630.332 1884.1 608.5 2008 586.668 1884.1Z" fill="#1954F4" fill-rule="evenodd"/></g></svg>