<svg width="5573" height="1185" xmlns="http://www.w3.org/2000/svg" xmlns:xlink="http://www.w3.org/1999/xlink" xml:space="preserve" overflow="hidden"><defs><clipPath id="clip0"><rect x="2" y="1418" width="5573" height="1185"/></clipPath></defs><g clip-path="url(#clip0)" transform="translate(-2 -1418)"><path d="M1979.74 1610.23C1990.94 1609.92 2002.22 1609.72 2013.38 1610.99 2020.01 1611.92 2027.13 1613.16 2032.28 1617.81 2035.39 1620.53 2036.03 1624.9 2035.98 1628.82 2035.97 1864.82 2035.96 2100.82 2035.98 2336.81 2035.94 2341.65 2036.58 2347.46 2032.58 2351.04 2026.55 2356.47 2018.1 2357.39 2010.39 2358.29 1998.39 2359.22 1986.33 2359.24 1974.33 2358.36 1966.48 2357.48 1958.05 2356.59 1951.58 2351.63 1947.42 2347.92 1948.06 2341.78 1948.01 2336.75 1948.03 2100.77 1948.02 1864.78 1948.01 1628.8 1947.88 1623.99 1949.07 1618.44 1953.63 1615.94 1961.51 1611.44 1970.87 1610.85 1979.74 1610.23Z" fill="#262626" fill-rule="evenodd"/><path d="M4060.59 1645.77C4071.65 1644.71 4082.88 1644.66 4093.93 1646.15 4102.73 1647.47 4112.01 1649.85 4118.64 1656.18 4125.44 1662.86 4127.75 1672.59 4129.06 1681.73 4130.36 1692.6 4130.33 1703.66 4128.9 1714.53 4127.6 1722.86 4125.33 1731.47 4119.79 1738.06 4115.46 1743.27 4108.99 1746.03 4102.66 1747.91 4090.55 1751.02 4077.93 1751.38 4065.52 1750.72 4055.17 1749.93 4044.3 1748.45 4035.52 1742.48 4027.47 1736.82 4023.95 1726.93 4022.4 1717.57 4020.66 1706.62 4020.69 1695.44 4021.69 1684.42 4023 1674.3 4025.32 1663.42 4032.89 1656.04 4040.43 1649.21 4050.81 1647.1 4060.59 1645.77Z" fill="#262626" fill-rule="evenodd"/><path d="M2344.86 1837.25C2370.86 1835.08 2397.11 1835.73 2422.97 1839.24 2442.98 1842.02 2462.84 1847.03 2481.19 1855.62 2496.95 1862.82 2511.53 1872.88 2523.28 1885.67 2533.06 1896.21 2540.7 1908.58 2546.52 1921.7 2554.46 1940.16 2558.61 1960.01 2560.98 1979.9 2563.71 2003.54 2562.83 2027.37 2562.97 2051.11 2562.96 2148.35 2562.98 2245.6 2562.96 2342.85 2563.06 2346.67 2561.67 2350.65 2558.4 2352.87 2550.77 2357.97 2541.24 2358.52 2532.36 2358.94 2522.1 2359.22 2511.73 2359.17 2501.62 2357.24 2497.08 2356.12 2491.99 2354.85 2489.11 2350.88 2486.34 2347.11 2486.88 2342.18 2486.79 2337.79 2486.75 2323.53 2486.53 2309.26 2486.73 2295.01 2464.62 2318.29 2438.42 2338.06 2408.79 2350.69 2392.06 2358.1 2374.16 2362.71 2356.01 2364.83 2335.6 2366.92 2314.92 2366.16 2294.68 2362.96 2275.74 2359.88 2257.04 2354.44 2239.97 2345.56 2222.76 2336.71 2207.22 2324.32 2195.4 2308.94 2181.84 2291.21 2172.69 2270.1 2169.27 2248.02 2166.43 2229.64 2166.18 2210.81 2168.95 2192.4 2172.06 2172.03 2179.65 2152.25 2191.8 2135.54 2212.69 2105.88 2245.78 2087.35 2279.67 2076.33 2323.64 2062.38 2370.17 2058.63 2416.09 2058.92 2435.74 2058.88 2455.38 2058.91 2475.03 2058.9 2474.71 2032.41 2476.69 2005.55 2470.91 1979.48 2467.34 1962.25 2459.77 1945.26 2446.68 1933.17 2431.59 1918.53 2410.63 1911.83 2390.16 1909.3 2366.26 1906.6 2341.89 1907.54 2318.32 1912.41 2286.81 1919.81 2256.95 1933.05 2228.96 1949.16 2223.42 1952.3 2217.82 1955.64 2211.57 1957.16 2205.86 1958.6 2199.48 1956.04 2196.41 1951.01 2191.11 1943.03 2190.98 1933 2190.56 1923.78 2190.64 1915.13 2190.59 1906.14 2193.91 1898.01 2197.61 1889.83 2204.86 1884.01 2212.25 1879.32 2228.84 1868.78 2246.99 1860.96 2265.5 1854.52 2291.22 1845.92 2317.86 1839.95 2344.86 1837.25M2332.8 2129.83C2312.95 2134.89 2293.07 2143.28 2278.64 2158.28 2267.2 2169.63 2260.5 2185.19 2258.53 2201.07 2256.86 2214.23 2257.21 2227.8 2260.92 2240.6 2265.4 2257.88 2276.86 2273.03 2291.8 2282.68 2306.94 2292.42 2325.12 2296.23 2342.91 2296.74 2361.71 2297.57 2380.77 2294.29 2398.01 2286.66 2416.05 2278.89 2431.83 2266.8 2446.47 2253.89 2456.34 2244.74 2466.09 2235.37 2474.79 2225.1 2475.44 2219.94 2474.84 2214.69 2475.05 2209.5 2475.03 2180.59 2475.07 2151.7 2475.03 2122.8 2452.04 2122.76 2429.07 2122.72 2406.09 2122.74 2381.52 2122.64 2356.72 2123.77 2332.8 2129.83Z" fill="#262626" fill-rule="evenodd"/><path d="M2863.24 1836.22C2881.25 1835.46 2899.34 1836.66 2917.06 1839.91 2938.07 1843.75 2959.02 1849.41 2977.92 1859.63 2984.7 1863.28 2991.51 1867.25 2996.75 1873 3000.9 1877.74 3001.3 1884.35 3002.3 1890.29 3003.65 1899.03 3003.52 1907.92 3003.13 1916.74 3002.53 1923.13 3002.02 1929.85 2998.84 1935.57 2997.08 1938.8 2993.78 1941.34 2990.02 1941.44 2985.05 1941.56 2980.75 1938.7 2976.65 1936.29 2964.52 1928.76 2951.63 1922.5 2938.32 1917.36 2922.99 1911.64 2907.18 1906.67 2890.77 1905.42 2869.71 1903.66 2847.93 1904.43 2827.86 1911.66 2815.46 1915.98 2803.98 1923.57 2796.15 1934.25 2786.81 1946.62 2782.59 1962.47 2783.6 1977.87 2784.09 1988.12 2786.6 1998.6 2792.63 2007.06 2801.11 2019.57 2813.14 2029.23 2826.11 2036.76 2846.85 2049.16 2869.89 2056.8 2892.17 2065.88 2912.91 2074.06 2933.47 2082.78 2953.27 2093.05 2974.31 2104.25 2993.77 2119.42 3007.18 2139.37 3013.79 2149.11 3019.18 2159.74 3022.63 2171.03 3029.16 2194.27 3029.35 2219.01 3025.26 2242.71 3019.02 2278.17 2998.37 2311.15 2968.26 2331.07 2951.03 2343.34 2931.21 2351.61 2910.88 2357.12 2883.87 2364.48 2855.7 2366.55 2827.8 2365.88 2800.72 2364.8 2773.71 2360.22 2747.94 2351.76 2733.76 2347 2719.84 2341.23 2707.04 2333.44 2701.67 2330 2696.15 2326.18 2693.1 2320.39 2687.68 2310.45 2687.26 2298.8 2687 2287.75 2686.97 2277.17 2687.26 2266.26 2691.23 2256.31 2692.94 2251.75 2697.75 2248.88 2702.57 2249.32 2708.62 2249.94 2713.88 2253.36 2719.09 2256.28 2741.43 2270.21 2765.41 2281.81 2790.81 2288.97 2806.69 2293.57 2823.31 2295.05 2839.78 2295.28 2854.38 2295.49 2869.04 2293.83 2883.14 2289.97 2896.74 2286.06 2909.99 2279.87 2920.43 2270.12 2931.51 2259.93 2938.05 2245.45 2939.91 2230.61 2941.69 2216.79 2940.8 2201.98 2933.85 2189.6 2926.83 2177.35 2915.9 2167.8 2904.17 2160.2 2885.42 2147.81 2864.19 2140.08 2843.36 2132.03 2817.04 2121.73 2790.76 2111.02 2766.32 2096.74 2753.39 2088.66 2741.19 2079.21 2731.06 2067.76 2718.89 2054.38 2709.78 2038.25 2704.4 2021 2694.83 1986.47 2697.2 1948.08 2713.84 1916.05 2727.86 1888.36 2752.76 1867.35 2780.74 1854.66 2806.46 1842.49 2834.93 1837.08 2863.24 1836.22Z" fill="#262626" fill-rule="evenodd"/><path d="M3322.81 1852.51C3342.46 1842.73 3364.11 1836.91 3386.07 1836.09 3411.29 1835.48 3436.92 1838.68 3460.41 1848.25 3476.63 1854.79 3491.61 1864.45 3504.19 1876.62 3519.85 1891.88 3531.14 1911.08 3539.54 1931.14 3566.54 1902.38 3595.48 1874.48 3630.48 1855.63 3650.48 1844.65 3672.77 1837.55 3695.61 1836.27 3716.13 1835.25 3736.9 1837.06 3756.79 1842.36 3789.58 1851.22 3818.71 1872.73 3837.32 1901.13 3848.04 1917.54 3855.68 1935.89 3860.36 1954.91 3865.69 1976.89 3868.73 1999.41 3869.54 2022.01 3870.33 2044.7 3869.83 2067.42 3869.98 2090.12 3869.98 2171.67 3869.97 2253.23 3869.98 2334.78 3869.91 2338.65 3870.27 2342.61 3869.32 2346.42 3867.74 2351.54 3862.54 2354.32 3857.77 2355.86 3847.35 2358.88 3836.41 2358.92 3825.66 2359 3814.9 2358.91 3803.98 2358.83 3793.58 2355.83 3789.62 2354.66 3785.59 2352.83 3783.1 2349.43 3781.3 2346.92 3781.09 2343.73 3781.09 2340.78 3781.1 2254.89 3781.1 2169 3781.1 2083.12 3780.91 2059.09 3781.98 2034.92 3778.6 2011.05 3775.8 1988.78 3769.73 1966.34 3756.87 1947.67 3744.88 1930.1 3725.59 1917.7 3704.61 1914.27 3692.29 1912.21 3679.54 1911.88 3667.33 1914.76 3651.2 1918.57 3636.41 1926.76 3623.48 1936.99 3598.19 1956.57 3576.88 1980.71 3556.69 2005.38 3556.77 2115.5 3556.68 2225.62 3556.73 2335.73 3556.65 2339.58 3557.06 2343.59 3555.73 2347.3 3554.09 2351.47 3549.92 2353.9 3545.88 2355.28 3535.35 2358.74 3524.13 2358.89 3513.16 2358.99 3502.09 2358.94 3490.83 2358.84 3480.11 2355.77 3476.22 2354.57 3472.04 2352.83 3469.96 2349.1 3467.85 2345.36 3468.35 2340.93 3468.28 2336.83 3468.31 2250.59 3468.29 2164.36 3468.3 2078.13 3468.18 2055.68 3469.04 2033.1 3465.59 2010.83 3462.56 1988.84 3455.9 1966.99 3443.55 1948.38 3431.8 1930.78 3412.91 1917.93 3391.98 1914.39 3379.16 1912.16 3365.85 1911.83 3353.15 1914.94 3337.07 1918.93 3322.37 1927.21 3309.4 1937.36 3285.04 1956.23 3264.48 1979.44 3245.02 2003.2 3244.17 2004.26 3243.09 2005.35 3243.37 2006.85 3243.35 2116.82 3243.33 2226.78 3243.35 2336.75 3243.24 2340.55 3243.76 2344.61 3242.07 2348.16 3239.91 2352.01 3235.8 2354.37 3231.71 2355.69 3221.05 2358.95 3209.76 2358.89 3198.72 2359 3187.39 2358.89 3175.79 2358.82 3164.95 2355.16 3161.46 2353.82 3157.62 2351.89 3156.2 2348.19 3154.5 2343.93 3155.14 2339.26 3155.03 2334.8 3155.03 2178.42 3155.05 2022.03 3155.03 1865.63 3155.08 1861.1 3154.62 1856.13 3157.14 1852.12 3159.95 1848.3 3164.68 1846.62 3169.08 1845.38 3180.78 1842.96 3192.82 1843.46 3204.7 1843.58 3213.41 1844.22 3223.3 1843.81 3230.3 1850 3233.52 1852.52 3234.88 1856.64 3234.76 1860.64 3234.82 1881.63 3234.77 1902.63 3234.78 1923.62 3260.36 1895.82 3288.55 1869.25 3322.81 1852.51Z" fill="#262626" fill-rule="evenodd"/><path d="M5027.68 1852.58C5047.89 1842.51 5070.21 1836.62 5092.81 1836.05 5114.04 1835.81 5135.51 1837.96 5155.72 1844.77 5175.38 1851.06 5193.67 1861.77 5208.58 1876.08 5224.58 1891.41 5236.02 1910.89 5244.57 1931.18 5269.63 1904.35 5296.4 1878.43 5328.23 1859.73 5348.06 1847.87 5370.13 1839.41 5393.18 1836.91 5413.11 1834.95 5433.38 1836.19 5452.99 1840.26 5489.29 1847.54 5522.07 1870.18 5542.31 1901.12 5552.16 1916.23 5559.47 1932.97 5564.17 1950.38 5569.76 1971.48 5572.95 1993.19 5574.22 2014.97 5575.43 2038.02 5574.84 2061.11 5574.98 2084.2 5574.99 2169.7 5574.97 2255.2 5574.99 2340.7 5575.08 2344.75 5574.04 2349.17 5570.65 2351.75 5564.19 2356.86 5555.58 2357.56 5547.71 2358.45 5534.85 2359.18 5521.89 2359.34 5509.08 2357.95 5502.22 2356.82 5494.66 2355.85 5489.39 2350.9 5486.53 2348.35 5486.01 2344.35 5486.08 2340.77 5486.1 2254.23 5486.09 2167.7 5486.09 2081.16 5485.93 2057.78 5486.9 2034.25 5483.6 2011.02 5480.78 1988.71 5474.69 1966.21 5461.76 1947.54 5451.07 1931.95 5434.67 1920.44 5416.38 1915.72 5397.15 1911 5376.27 1911.43 5357.95 1919.45 5342.34 1925.65 5328.9 1936.09 5316.28 1946.97 5296.29 1964.6 5278.63 1984.66 5261.75 2005.23 5261.7 2115.74 5261.69 2226.26 5261.73 2336.79 5261.69 2341.41 5262.15 2346.78 5258.75 2350.45 5254.69 2354.82 5248.57 2356.11 5243 2357.25 5231.47 2359.31 5219.68 2359.02 5208.02 2358.83 5199.93 2358.56 5191.77 2357.85 5184.04 2355.41 5180.43 2354.19 5176.61 2352.38 5174.84 2348.84 5172.83 2345.13 5173.33 2340.78 5173.27 2336.74 5173.29 2249.87 5173.28 2163.02 5173.28 2076.16 5173.18 2055.08 5173.93 2033.87 5170.86 2012.95 5167.97 1990.39 5161.37 1967.93 5148.81 1948.8 5138.26 1932.98 5122.12 1920.73 5103.64 1915.9 5084.2 1910.94 5062.99 1911.38 5044.45 1919.49 5025.62 1927.16 5009.7 1940.3 4994.94 1954.01 4977.98 1969.71 4962.98 1987.36 4948.36 2005.23 4948.3 2117.41 4948.34 2229.59 4948.3 2341.78 4948.3 2345.13 4947.49 2348.74 4944.86 2351.03 4939.15 2356.35 4930.97 2357.21 4923.59 2358.22 4910.57 2359.25 4897.43 2359.29 4884.43 2358.18 4877.47 2357.2 4870 2356.36 4864.19 2352.07 4860.6 2349.55 4859.98 2344.79 4860 2340.76 4860.02 2181.04 4860.01 2021.33 4860 1861.62 4860 1857.34 4860.65 1852.34 4864.46 1849.69 4871.67 1844.48 4880.94 1844.16 4889.5 1843.63 4900.8 1843.4 4912.18 1843.18 4923.41 1844.78 4928.86 1845.59 4934.31 1848.12 4937.66 1852.65 4939.75 1855.51 4939.66 1859.24 4939.78 1862.63 4939.84 1882.98 4939.85 1903.33 4939.8 1923.68 4965.26 1895.8 4993.51 1869.35 5027.68 1852.58Z" fill="#262626" fill-rule="evenodd"/><path d="M4054.48 1844.93C4066.39 1843.69 4078.41 1843.89 4090.37 1844.38 4098.3 1845.09 4106.72 1845.68 4113.7 1849.9 4117.66 1852.19 4120.12 1856.63 4119.96 1861.18 4120 2018.72 4119.96 2176.25 4119.98 2333.8 4119.86 2338.08 4120.36 2342.46 4119.33 2346.69 4116.95 2352.69 4110.33 2355.47 4104.41 2356.75 4091.83 2359.34 4078.89 2359.08 4066.13 2358.88 4056.36 2358.26 4046.01 2358.09 4037.19 2353.38 4032.74 2351.38 4030.89 2346.43 4031.05 2341.85 4030.99 2182.28 4031.07 2022.7 4031.01 1863.13 4030.94 1858.94 4031.46 1854.11 4034.92 1851.26 4040.47 1846.94 4047.69 1845.88 4054.48 1844.93Z" fill="#262626" fill-rule="evenodd"/><path d="M4296.07 1845.87C4307.24 1843.76 4318.73 1844.04 4330.07 1844.02 4339.44 1844.44 4349.12 1844.12 4358.08 1847.35 4361.79 1848.9 4365.79 1850.95 4367.58 1854.79 4369.49 1858.64 4368.89 1863.07 4369.01 1867.23 4368.99 1952.68 4369.01 2038.14 4369.01 2123.59 4368.89 2148.01 4368.92 2172.56 4372.71 2196.75 4375.77 2214.9 4381.54 2232.82 4391.5 2248.42 4402.19 2265.6 4418.94 2279.02 4438.28 2285.18 4460.49 2292.03 4485.13 2291.77 4506.8 2283.06 4522.56 2277.05 4536.66 2267.47 4549.58 2256.76 4564.95 2244.2 4578.93 2230 4592.01 2215.08 4596.92 2209.05 4602.59 2203.47 4606.81 2196.95 4607.02 2087.68 4606.87 1978.4 4606.92 1869.12 4607.07 1864.55 4606.32 1859.8 4607.9 1855.42 4609.75 1850.22 4615.43 1848.06 4620.26 1846.5 4631.54 1843.65 4643.31 1844.15 4654.85 1844 4664.19 1844.32 4673.73 1844.05 4682.8 1846.65 4687.88 1848.35 4693.11 1851.45 4695.22 1856.64 4696.35 1860.71 4695.89 1864.99 4695.99 1869.17 4695.98 2026.4 4695.99 2183.64 4695.98 2340.88 4695.92 2344.62 4695.39 2348.78 4692.53 2351.5 4688.79 2355.01 4683.66 2356.36 4678.79 2357.4 4668.56 2359.27 4658.13 2359.23 4647.8 2359.01 4639.9 2358.62 4631.82 2358.2 4624.39 2355.32 4621.54 2354.06 4618.49 2352.45 4617.07 2349.56 4615.43 2346.26 4615.48 2342.47 4615.46 2338.89 4615.39 2318.91 4615.3 2298.93 4615.43 2278.96 4603.17 2291.91 4590.72 2304.73 4577 2316.14 4559.96 2330.21 4541.39 2342.69 4520.99 2351.36 4502.46 2359.46 4482.59 2364.68 4462.36 2365.71 4440.53 2366.74 4418.45 2365.13 4397.3 2359.48 4364.21 2350.83 4334.15 2330.24 4314.93 2301.86 4302.63 2284.01 4294.18 2263.68 4289.03 2242.68 4278.62 2199.77 4280.08 2155.33 4280.06 2111.52 4280.05 2029.73 4280.07 1947.95 4280.05 1866.17 4280.12 1861.64 4279.52 1856.51 4282.47 1852.66 4285.85 1848.71 4291.13 1846.99 4296.07 1845.87Z" fill="#262626" fill-rule="evenodd"/><path d="M1369 1675.85C1377.92 1666.23 1391.32 1661.99 1404.2 1662.04 1443.98 1661.97 1483.77 1662.04 1523.55 1662.01 1549.31 1662.17 1575.09 1661.52 1600.82 1662.99 1624.72 1664.03 1648.45 1667.77 1671.83 1672.75 1693.6 1677.28 1714.37 1685.75 1733.96 1696.14 1764.95 1712.73 1791.72 1737.95 1808.19 1769.18 1820.85 1792.35 1827.87 1818.3 1830.61 1844.48 1832.78 1866.08 1832.28 1887.89 1830.01 1909.45 1825.39 1953.32 1809.87 1996.85 1781.25 2030.87 1757.64 2059.37 1725.67 2080.14 1691.27 2093.28 1665.46 2103.16 1638.26 2109.16 1610.81 2112.1 1573.4 2116.4 1535.69 2114.76 1498.12 2115.11 1498.03 2188.97 1498.03 2262.82 1497.99 2336.67 1498.06 2343.99 1492.13 2349.75 1485.63 2352.09 1476.09 2355.62 1465.9 2357.01 1455.81 2357.96 1438.96 2359.2 1422.01 2359.32 1405.13 2358.37 1395.34 2357.87 1385.55 2356.68 1376.01 2354.34 1370.57 2352.93 1364.83 2351.16 1360.94 2346.85 1358.11 2343.89 1356.96 2339.71 1357 2335.7 1357 2128.14 1356.99 1920.57 1357.01 1713 1356.93 1699.87 1359.6 1685.66 1369 1675.85Z" fill="#FFC000" fill-rule="evenodd"/><path d="M2.00007 1995.5C2.00007 1676.56 260.556 1418 579.5 1418 898.444 1418 1157 1676.56 1157 1995.5 1157 2314.44 898.444 2573 579.5 2573 260.556 2573 2.00007 2314.44 2.00007 1995.5Z" fill="#262626" fill-rule="evenodd"/><path d="M192 1837C192 1700.51 397.926 1548.68 439.111 1589.87 480.296 1631.06 480.296 2042.94 439.111 2084.13 397.926 2125.32 192 1973.49 192 1837Z" fill="#FFC000" fill-rule="evenodd"/><path d="M720 2084.13C678.667 2042.94 678.667 1631.06 720 1589.87 761.333 1548.68 968 1700.51 968 1837 968 1973.49 761.333 2125.32 720 2084.13Z" fill="#FFC000" fill-rule="evenodd"/><path d="M533.5 1583.5 533.5 2408.5" stroke="#FFC000" stroke-width="68.75" stroke-miterlimit="8" fill="none" fill-rule="evenodd"/><path d="M626.5 1583.5 626.501 2408.5" stroke="#FFC000" stroke-width="68.75" stroke-miterlimit="8" fill="none" fill-rule="evenodd"/><path d="M527.5 2387.5 626.66 2567.73" stroke="#FFC000" stroke-width="68.75" stroke-miterlimit="8" stroke-opacity="0.501961" fill="none" fill-rule="evenodd"/><path d="M624.5 2392.5 729.021 2562.58" stroke="#FFC000" stroke-width="68.75" stroke-miterlimit="8" stroke-opacity="0.501961" fill="none" fill-rule="evenodd"/></g></svg>